<svg xmlns="http://www.w3.org/2000/svg" width="25" height="24"><path fill-rule="evenodd" d="M6.354 3.287A.7.7 0 0 1 6.98 2.9H18.5a.7.7 0 0 1 .627.387l2.88 5.76a.7.7 0 0 1 .06.45 2.602 2.602 0 0 1-.947 1.53v7.893a1.7 1.7 0 0 1-1.7 1.7H6.06a1.7 1.7 0 0 1-1.7-1.7v-7.893a2.601 2.601 0 0 1-.946-1.53.7.7 0 0 1 .06-.45l2.88-5.76ZM10.86 19.22h3.76a.3.3 0 0 0 .3-.3v-2.8a.3.3 0 0 0-.3-.3h-3.76a.3.3 0 0 0-.3.3v2.8a.3.3 0 0 0 .3.3Zm5.434 0c.017-.097.026-.197.026-.3v-2.8a1.7 1.7 0 0 0-1.7-1.7h-3.76a1.7 1.7 0 0 0-1.7 1.7v2.8c0 .103.01.203.027.3H6.06a.3.3 0 0 1-.3-.3v-7.212c.398.103.813.152 1.22.152.757 0 1.542-.17 2.193-.542.25-.143.484-.318.687-.527.204.209.438.384.688.527.65.372 1.435.542 2.192.542.758 0 1.542-.17 2.193-.542.25-.143.484-.318.687-.527.204.209.438.384.688.527.65.372 1.435.542 2.192.542.407 0 .823-.049 1.22-.152v7.212a.3.3 0 0 1-.3.3h-3.126ZM7.413 4.3 4.849 9.43c.108.267.32.493.634.673.4.228.934.357 1.497.357.563 0 1.098-.129 1.498-.357.391-.224.624-.521.696-.88a.7.7 0 0 1 1.373 0c.071.359.304.656.696.88.4.228.934.357 1.497.357.563 0 1.098-.129 1.498-.357.392-.224.624-.521.696-.88a.7.7 0 0 1 1.373 0c.072.359.304.656.696.88.4.228.934.357 1.497.357.563 0 1.098-.129 1.498-.357.314-.18.526-.406.634-.674L18.068 4.3H7.413Z" clip-rule="evenodd"/></svg>